<?xml version="1.0" encoding="UTF-8"?>
<svg id="Layer_2" data-name="Layer 2" xmlns="http://www.w3.org/2000/svg" viewBox="0 0 1848.37 1932.91">
  <defs>
    <style>
      .cls-1 {
        fill: #fff;
      }

      .cls-2 {
        fill: #16e0e6;
      }

      .cls-3 {
        fill: #020303;
      }

      .cls-4 {
        fill: #ffd506;
      }
    </style>
  </defs>
  <g id="Layer_1-2" data-name="Layer 1">
    <g>
      <path class="cls-1" d="M1281.68,1072.88l363.3,169.45,17.02,100.38-3.92,51.32-88.54,354.43c-4.63,18.87-9.42,37.7-14.32,56.5-6.59,25.25-8.68,61.73-32.25,76.24-33.88,20.85-71.31,35.86-110.17,44.36-50.44,11.03-105.25,6.34-156.98,6.52-57.45.21-114.89.26-172.34.27-129.55.03-259.09-.18-388.64-.32-67.77-.07-135.71-1.86-203.41.5-60.25,2.1-120.39-12.62-172.13-43.83-5.62-3.39-11.21-7.03-15.46-12.03-14.58-17.15-14.8-51.41-18.08-72.92-2.56-16.79-4.9-33.62-6.91-50.48,0,0-24.17-291.34-24.17-291.34l-65.66-139.17,129.3-215.75,136.41-20.09,826.95-14.05Z"/>
      <g>
        <path class="cls-3" d="M1128.56,1171.01l-31.46,5.2c-34.95,5.77-70.17,6.57-104.41-2.93-49.48-13.73-88.76-46.87-108.38-94.86-23.58-57.68-14.07-123.26,18.94-175.32,19.81-31.24,43.49-54.28,72.49-76.69,38.67-29.88,76.56-58.24,112.78-91.26,63.93-58.29,111.83-131.15,132.35-215.63,25.27-104.04,17.41-213.13-26.01-309.46-64.01-142-227.62-201.24-368.99-135.94-36.82,17.01-74.07,39.32-102.43,69.28-42.42,44.82-71.07,99.17-75,159.75-4.04,62.43,23,118.51,76.95,148.39,39.02,21.61,82.46,28.24,127.76,10.09,70.29-28.17,107.47-115.33,65.47-169.22-11.96-15.34-26-26.84-46.28-26.28,4.53,10.94,12.73,21.76,14.74,32.83,3.49,19.3-3.14,38.62-15.69,50.3-13.24,12.33-32.51,16.4-51.93,10.94-22.92-6.45-40.65-31.65-41.74-56.3-1.1-24.66,6.92-48.88,23.46-67.03,42.29-46.38,111.74-58.45,167.11-29.81,12.67,6.55,24.79,15.04,32.08,26.42,24.12,37.64,27.13,81.02,18.19,123.58-9.8,46.61-31.48,85.1-65.44,117.89-21.34,20.61-42.83,38.93-69.38,53.82-75,42.05-149.17,83.92-221.47,129.97-68.02,43.32-112.37,107.32-130.05,185.22-13.47,59.32-14.67,116.01,3.03,175.21,25,83.61,74.09,139.16,150.83,180.24,2.45,1.31,5.86,4.82,7.23,6.58-44.05-12.62-85.83-32.21-127.64-52.87-14.43-7.13-28.1-13.29-43.36-17.91-41.82-12.68-151.62-31.03-180.03,2.98-44.59,53.37-60.26,109.78-64.89,180-1.54,23.35,0,52-.27,79.66-64.52-50.6-110.53-133.37-125.95-211.5-12.89-65.29.25-131.64,33.82-189.09,26.34-45.09,59.32-83.5,93.34-124.42,3.73,28.09,5.83,53.1,16.53,77.8,22.61,52.2,58.69,98.35,106.04,127.85,2.41,1.5,4.68,3.52,8.29,4.94l-8.34-7.01c-72.02-75.61-98.21-182.21-69.12-283.14,38.22-132.6,152.64-200.57,279.42-230.22,36.51-8.54,72.27-15.04,108.39-20.37,4.83-.71,10.93-.46,17.52-1.04-4.52-2.7-11.27-2.18-15.64-3.48-60.27-17.86-107.53-62.19-125.17-124.03-33.75-118.26,13.52-233.67,103.84-312.97C779.11,31.77,883.33-1.07,988.09.03c68.44.71,130.08,17.73,188.36,53.47,193.31,118.57,308.21,367.37,312.21,590,1.7,94.61-24.34,187.53-65.08,270.73-21.64,44.19-49.64,79.16-80.63,117.06,97.58-73.57,161.93-179.14,184.25-298.05l20.9,65.3c7.82,24.44,19.21,47.75,32.52,69.91l62.3,103.75c45.92,76.48,65.53,168.71,41.87,256.44-19.9,73.8-55.7,167.13-116.81,215.76.51-54.14.26-70.67-4.85-100.66-8.37-49.16-28.98-124.67-59.28-164.67-55.94-73.85-128.39-68.42-216.69-52.16-40.02,7.37-76.62,19.22-115.11,31.62-14.9,4.8-29.01,10.09-43.49,12.48Z"/>
        <path class="cls-3" d="M319.96,1369.29c1.43-65.08,1.59-134.75,40.07-190.45,3.95-5.72,8.3-11.31,13.97-15.35,23.82-16.97,65.65-10.61,91.87-4.31,34.88,8.38,67.42,24.17,99.85,39.08,118.95,45.59,244.85,95.65,374.35,71.21,59.05-10.34,115.69-29.49,171.3-51.46,114.48-36.25,304.19-134.65,376.19,16.74,13.95,29.33,20.87,61.48,26.05,93.54,22.34,138.33,17.84,288.01,1.24,426.83-6.69,28.23-7.85,69.36-26.95,91.24-58.89,43.66-138.63,36.88-208.02,41.12-140.21-.4-586.07,4.88-797.98-4.17-29.95-2.69-59.91-9.53-88.66-18.94-21.32-6.4-43.13-18.05-48.53-41.47-33.41-119.54-24.51-249.98-26.39-372.08"/>
        <path class="cls-2" d="M1128.56,1171.01c-62.91,33.28-134.66,55.59-206.91,67.18-73.9,11.86-161.84-2.6-228.32-32.21-1.37-1.76-4.78-5.26-7.23-6.58-76.75-41.09-125.83-96.63-150.83-180.24-17.7-59.2-16.5-115.89-3.03-175.21,17.69-77.9,62.03-141.9,130.05-185.22,72.3-46.05,146.48-87.92,221.47-129.97,26.55-14.89,48.04-33.21,69.38-53.82,33.96-32.79,55.64-71.28,65.44-117.89,8.94-42.56,5.94-85.94-18.19-123.58-7.29-11.38-19.41-19.87-32.08-26.42-55.37-28.63-124.82-16.57-167.11,29.81-16.54,18.15-24.56,42.36-23.46,67.03,1.1,24.65,18.83,49.86,41.74,56.3,19.41,5.46,38.69,1.39,51.93-10.94,12.55-11.68,19.18-31,15.69-50.3-2-11.07-10.2-21.9-14.74-32.83,20.27-.56,34.32,10.93,46.28,26.28,42,53.89,4.82,141.05-65.47,169.22-45.3,18.15-88.74,11.52-127.76-10.09-53.95-29.88-80.99-85.96-76.95-148.39,3.92-60.58,32.58-114.93,75-159.75,28.36-29.96,65.61-52.28,102.43-69.28,141.37-65.3,304.98-6.06,368.99,135.94,43.42,96.33,51.28,205.41,26.01,309.46-20.52,84.48-68.41,157.34-132.35,215.63-36.23,33.03-74.11,61.39-112.78,91.26-29,22.41-52.68,45.45-72.49,76.69-33.01,52.06-42.51,117.65-18.94,175.32,19.62,48,58.9,81.13,108.38,94.86,34.23,9.5,69.45,8.7,104.41,2.93l31.46-5.2Z"/>
        <path class="cls-3" d="M278.85,1753.28c-31.23,15.98-23.05,15.58-60.12,8.17l-5.94-64.09c-20.87-16.09-35.93-35.68-42.06-60.92-12.16-1.29-18.73-8.17-27.26-14.62-12.79-9.67-25.98-17.83-39.75-27.19l-6.76-25.31-39.03-4.54c-29.78-3.46-29.52-85.56-20.11-117.02,4.46-14.91,17.49-24.12,34.34-24.21l.16-427.09-27.96-3.59c-19.18-22.76-15.74-52.01-25.58-77.37-7.88-20.31-18.68-35.29-17.38-59.26,2.08-38.3,26.24-73.14,60.06-85.87,38.56-14.51,79.96-2.43,104.64,26.69,25.8,30.44,30.61,75.27,8.46,107.93-20.75,30.6-7.33,52-33.1,89.68l-20.21,1.75-2.01,139.93.15,258.05c34.69-12.92,16.53-19.29,53.28-28.43l16.35-74.68c27.87,32.09,56.8,61.86,87.99,90.9l1.76,218.57c.37,39.63,5.4,77.56,2.2,116.74-1,12.24-4.5,22.77-2.13,35.79Z"/>
        <path class="cls-3" d="M1624.82,1768c-7.61,6.4-52.65-2.08-55.28-19.54l-4.35-28.83c-5.54-36.73,1.86-72.81,2.08-110.21l1-233.94c34.27-31.88,64.72-63.08,93.73-100.41l10.08,92.07c33.62,4.22,27.9,23.3,54.11,26.21l-1.56-233.4-1.63-163.24-19.98-3.28c-21.23-29.72-16.35-48.16-26.55-80.23-26.29-43.28-20.32-95.83,18.62-128.02,37.35-30.87,96.23-28.14,128.2,9.51,31.29,36.87,32.66,85.91,1.31,121.84l-7.72,37.32c-3.09,14.94-9.67,28.87-19.24,40.35l-24.89,1.02,3.26,429.07c53.77-8.5,46.59,140.87,9.78,142.62l-37.69,1.79-6.45,27.62c-33.57,16.44-37.62,31.04-66.98,43.01-8.18,21.78-18.39,43.41-39.87,55.52l-9.97,73.14Z"/>
        <path class="cls-4" d="M1848.37,860.91c0,63.11-33.33,54.69-95.15,54.69s-95.15,4.75-95.15-54.69c0-55.23,42.6-100,95.15-100s95.15,44.77,95.15,100Z"/>
        <path class="cls-4" d="M190.29,860.91c0,63.11-33.33,54.69-95.15,54.69S0,920.35,0,860.91c0-55.23,42.6-100,95.15-100s95.15,44.77,95.15,100Z"/>
        <path class="cls-1" d="M1112.08,1045.28c-34.7.75-60.17-34.47-62.81-66.92-3.9-45.31,23.02-86.38,53.61-116.88,20.23-20.12,43.13-37.14,65.99-53.41,26.94-19.28,55.07-38.31,77.4-62.35,7.11-7.57,13.67-15.8,19.21-24.56,35.35-57.26,56.61-124.18,61.36-191.6,1.17-16.23,1.3-32.37,1.03-48.72,0,0,.97-.25.97-.25,10.53,19.7,17.77,41.39,22.33,63.38,13.85,68.13,2.13,140.43-27.99,202.79-3.58,7.46-7.94,15.17-12.48,22.06-26.07,39.78-65.22,68.7-104.63,94-42.85,28.44-109.48,63.67-121.87,116.54-3.9,16.34.51,37.9,12.04,51.75,4.15,5.2,9.53,9.7,16.05,13.21,0,0-.22.98-.22.98h0Z"/>
        <path class="cls-1" d="M549.42,665.9c-55.22,45.76-87.48,93.54-97.47,165.55-1.46,10.28-2.28,20.57-3.3,31.02,0,0-.95.31-.95.31-3.64-4.22-6.67-8.86-9.42-13.74-30.56-56.3-6.27-132.79,47.15-166.14,16.61-10.72,35.63-17.47,55.33-18.23,2.81.01,5.57.03,8.35.27l.31.95h0Z"/>
      </g>
    </g>
  </g>
</svg>