<?xml version="1.0" encoding="UTF-8"?>
<svg id="Layer_1" xmlns="http://www.w3.org/2000/svg" version="1.1" viewBox="0 0 1984 1984">
  <!-- Generator: Adobe Illustrator 30.3.0, SVG Export Plug-In . SVG Version: 2.1.1 Build 104)  -->
  <defs>
    <style>
      .st0 {
        fill: #02f8f8;
      }

      .st1 {
        fill: #020302;
      }

      .st2 {
        fill: #ffe000;
      }

      .st3 {
        fill: #fefefe;
      }
    </style>
  </defs>
  <circle class="st2" cx="173.3" cy="857.2" r="99.3"/>
  <circle class="st2" cx="1841" cy="856.2" r="99.3"/>
  <path class="st1" d="M1122,0c69.5,0,169.1,64.7,221.2,115.5,21.8,21.3,56.9,65.1,71.8,91,20,34.7,43.8,66.1,66,99.3,52.4,78.4,77.1,173.6,94.3,264.8l18.5,98.4c3.8,20.4,8.8,39.1,15.7,58.6l17.8,50.1c22.6,63.6,32,79,65.1,135.1l39.7,67.2c12,20.3,20.2,40.1,25.1,63.2l22.2,104.5c4.5,21.2,5.6,38.2.9,59.5l-20.6,94.6c-3,13.9-5.2,26.9-9.7,40.5,3.4,7.1,7.4,14.2,9.9,21.5,6,17.9,15.6,9.7,23.5,16.7,9.5,8.4,18.5,15.5,31.4,20.7,1.8-28.6.9-55.2.6-83.2l-1.6-167.8-.9-46.2-1.2-101.6-16.4-4.8c-22.3-22-20.5-46.5-27.8-76.7,51.4-9.5,96.5-12.1,148-1-2.8,16.4-12.3,74.6-29.9,78.4l-22.3,4.8,1.2,85.9,1,100.2.6,241.9c21.1-2.9,33.3,20.5,36.1,38.9,4.5,29.9,7.9,88.3-23.1,107-13.6-1.8-27.2,0-40.4,3.4-8.5,26.7-2.6,21.3-22.1,35.2l-32.7,23.3c-6,4.3-14.4,6.4-19.4,11.9s-5,14-7.7,20.2c-6.3,14.8-21.8,22.5-29,35.7-10.6,19.6-6.3,65.5-19.8,72.6s-13,3.3-20.9,1.2l-21.5,94.9c-4.9,21.6-30.7,46.8-47.4,61.1-12.5,10.8-25.8,18.3-42.3,21.9-36.1,7.9-71.6,16.7-108.9,19-30.8,1.9-61.2,4.5-92.2,4.5h-748.6c-28.6-.1-57-2.4-84.9-5.2-27.6-2.8-105.5-14.7-127.1-27.8-22.9-13.9-54.8-42.1-63.7-68.2-11.3-32.9-16.8-66.5-23.1-101.1-8.9-.3-24.9.5-27.5-9.5-5.5-21.4-4.2-43.4-10.1-64.8-24.4-18.7-31.5-28.8-41.6-58.2-10.7-3.3-18.4-9.3-27.2-15.7l-36.5-26.4c-7.7-5.6-6.8-17.5-10.6-25.8l-26.8-3.4c-6.4-.8-11.5,2.1-17.6-3.7-9.9-9.4-15.6-23-17.4-37.2-3.6-28.2-7.3-93.5,27.9-104.3,3.1.7,5.7,1.2,9,1.3l.3-333.6c0-32.1,1.9-63.4.2-95.5-8.7-1.6-18.3,1.2-25.3-4.1-17.2-13-20.5-47.8-24.5-69.5s1.4-5.9,4.2-6.5c36.6-8.1,103.4-8.1,141.6.6-7,31.2-5.8,51.3-26.7,76.2l-18.7,3.9-2.3,107.7c-.7,33.9-.4,66.2-.3,100.2l.6,165.7c0,8.6-2.3,16,0,24.9,6.7-3.2,13.9-5.8,19.8-9.7s11.3-13,19.7-14.3c8.7-1.3,15-5.3,17.4-14.3s8.1-14.6,7.3-22.3c-1.8-19-7.6-36.6-12-55.3l-20-83.2c-3.4-14.1-7.3-27.6-6.7-42.3,1.1-24.2,2.8-47.6,6.3-71.3,7.4-49.5,52.5-119.1,83.9-158.5l72.6-91.1,76.1-101.1,78.6-88.3c20.8-23.3,38-48.4,56-73.9,20.1-28.5,40.7-55.1,63.7-81.2l33.5-38.1c-29-64.3-35.2-134.1-15.7-201.4,13-44.7,36.3-82.8,66.3-117.7,12.4-14.4,24.8-28.4,39.6-40.9,59.4-50.1,132.9-81.6,209.3-94l2.5.9c.5.2,1-1.6.9-1.7l10.7-1.3c2.7-.3,7.4-.4,10-1h104ZM672.9,1142.2c-36.9-5.5-73.9-8.7-111.6-3.5-23.9,3.3-47.4,8.6-69.5,18.3-38.6,17-68.5,47.2-89.4,83.1-25.7,44.1-44.7,88.8-45.3,141-1.1,106.2-4.6,299.1,11.8,398.5,4.6,28.2,10.8,56.1,21.4,82.5,10.5,26.2,36.4,44.1,61.4,53.3s28.8,8.1,44.1,11.9c23.2,5.9,47.2,7.8,71.5,9l65.4,3.2h753.9c0,0,65.3-3.1,65.3-3.1,40.4-1.9,78.8-9.1,117.2-21.7s25.2-16.6,36.5-26.9c16-14.5,23-30.3,27.7-50.9,9.5-41.4,17.3-82,19-124.7l4-99c3-73.6,1.5-146.8,0-220.6-1.1-49.4-3.4-97.9-11.7-146.4-6.7-39.2-10.9-33.1-38.8-56.2-28.8-23.9-71.2-47.7-107.7-56.5-32.4-7.8-63.7-11-97.1-5.8-49.1,7.6-96.7,19.5-143.8,35-35.2,11.5-124.1,29.7-158.1,30.1h-1.2s-3,.2-3,.2c-46.2,3.2-72.8-17.8-98.6-53.7-19.1-26.6-35.3-55-40.7-88s-1-16.9-1.4-25.6c-2.3-49.4,13.3-96.4,43.5-135.3,14.4-18.6,29-35.9,48-50l57.4-42.4c57.7-42.6,139.4-125.9,169.9-189.8,35.2-73.7,53.4-173.5,45.6-254.3-4.5-46.2-16.7-91.5-34.4-134-26.2-62.9-71.5-115.3-132.5-145.6-41.1-20.5-84.9-30.1-130.5-28.3-35,1.4-67.7,8.2-100.3,21.6-37.7,15.6-74,36.4-104.4,63.2-37.9,33.4-61.9,74.3-76.9,122.1-15.2,48.3-12.8,102.9,12.9,147.2,13.8,23.7,34.4,41.1,57.5,53.3,56.6,30,123.3,23.2,170-20.8,52.5-49.4,53-133.7.3-183.7s-8.1-5-12.1-3.5c13.5,35.6,20.4,58,17.2,95.8-2.9,35-22.2,65.8-53.8,82.5-22.9,12.1-52.7,13.2-76.2,1.6s-26.6-19.6-34.6-33.2-8.7-28.5-8.8-43.4c0-62.3,42.1-111.1,94.6-138.3,39.1-20.3,82.9-30.3,126.1-19.7,20.5,5,40.9,12.1,54.7,28.4,15.2,18,20.5,41.2,22.8,64.3,5.8,58-17.4,135.5-60.1,177.6l-34.3,33.8c-25,24.7-56.2,40.3-87.1,56.7-47.8,25.4-93.6,52.2-139.2,80.5l-30.9,19.2c-5.2,3.2-10.1,5.8-15.1,9.2-28.2,19.6-67.2,51.9-85.3,80.8l-13.5,21.7c-11.5,18.4-18.6,39.1-24.8,60.1-18,61.2-22.4,125.7-7.2,187.8s16.9,59.3,32.7,86.1c7.8,13.1,15,25.3,23.6,37.7s2.6,5.1,3.6,7.3Z"/>
  <path class="st0" d="M1018,0c-2.6.6-7.3.7-10,1V0h10Z"/>
  <path class="st0" d="M997.3,2.3c.1.2-.5,1.9-.9,1.7l-2.5-.9c.6-.3,2.4-.7,3.4-.8Z"/>
  <path class="st0" d="M1095,1193.3c-10.9,18.4-69.2,34.8-90.6,41.3-45.8,13.9-93.1,16.4-139.3,3.4l-49.8-14c-30.3-8.5-57.1-21.9-83.9-38-16.3-9.8-30.1-20.3-43.8-33.7s-9.5-9.3-14.6-10.1c-1.1-2.2-2.2-5.2-3.6-7.3-8.6-12.5-15.8-24.7-23.6-37.7-15.9-26.8-25.3-55.6-32.7-86.1-15.2-62.1-10.8-126.6,7.2-187.8,6.2-21,13.3-41.7,24.8-60.1l13.5-21.7c18.1-29,57.1-61.3,85.3-80.8,4.9-3.4,9.9-6,15.1-9.2l30.9-19.2c45.5-28.3,91.3-55.1,139.2-80.5,30.9-16.4,62-32,87.1-56.7l34.3-33.8c42.7-42.1,65.9-119.6,60.1-177.6-2.3-23.1-7.5-46.3-22.8-64.3-13.8-16.3-34.2-23.4-54.7-28.4-43.2-10.6-86.9-.5-126.1,19.7-52.5,27.2-94.7,76-94.6,138.3,0,14.9,1,30.1,8.8,43.4s19.9,26,34.6,33.2c23.5,11.6,53.3,10.5,76.2-1.6,31.5-16.6,50.9-47.4,53.8-82.5,3.1-37.9-3.8-60.3-17.2-95.8,4-1.5,9.1.6,12.1,3.5,52.7,50,52.2,134.2-.3,183.7-46.7,44-113.5,50.8-170,20.8-23.1-12.3-43.8-29.6-57.5-53.3-25.7-44.3-28.1-98.9-12.9-147.2,15.1-47.7,39-88.7,76.9-122.1,30.4-26.7,66.7-47.6,104.4-63.2,32.7-13.5,65.3-20.2,100.3-21.6,45.7-1.9,89.4,7.8,130.5,28.3,60.9,30.3,106.3,82.6,132.5,145.6,17.7,42.6,29.9,87.8,34.4,134,7.8,80.8-10.4,180.6-45.6,254.3-30.5,63.9-112.2,147.2-169.9,189.8l-57.4,42.4c-19,14.1-33.6,31.5-48,50-30.2,38.9-45.7,85.9-43.5,135.3.4,8.7,0,17.2,1.4,25.6,5.4,33,21.5,61.4,40.7,88,25.9,35.9,52.4,57,98.6,53.7Z"/>
  <path class="st3" d="M672.9,1142.2c5.1.8,10.9,6.5,14.6,10.1,13.7,13.3,27.5,23.9,43.8,33.7,26.8,16.1,53.6,29.5,83.9,38l49.8,14c46.3,13,93.6,10.5,139.3-3.4,21.4-6.5,79.7-23,90.6-41.3l3-.2c.3.3.8.3,1.2,0,34-.5,122.9-18.6,158.1-30.1,47.1-15.4,94.7-27.4,143.8-35,33.4-5.2,64.7-2,97.1,5.8,36.5,8.8,78.9,32.6,107.7,56.5,27.9,23.2,32.1,17.1,38.8,56.2,8.3,48.5,10.7,96.9,11.7,146.4,1.6,73.7,3,147,0,220.6l-4,99c-1.7,42.7-9.5,83.3-19,124.7-4.7,20.6-11.7,36.3-27.7,50.9-11.3,10.2-21.4,21.9-36.5,26.9-38.4,12.6-76.8,19.8-117.2,21.7l-65.3,3.1h-753.9c0,0-65.4-3.2-65.4-3.2-24.3-1.2-48.2-3.1-71.5-9-15.3-3.9-28.8-6.3-44.1-11.9-25-9.2-51-27.1-61.4-53.3-10.5-26.4-16.7-54.3-21.4-82.5-16.4-99.4-12.9-292.4-11.8-398.5.6-52.3,19.6-97,45.3-141,20.9-36,50.8-66.2,89.4-83.1s45.5-15,69.5-18.3c37.7-5.2,74.8-2.1,111.6,3.5ZM402.3,1662.8c1.4,34.9,2,69.1,8.2,103.5s11.1,52.4,18.2,78.4c2.5,9.2,7.6,13.1,15.3,17.6,45.2,26.1,98.6,30.8,148.9,32.8l62,2.5h707.9s71.2-2.6,71.2-2.6c28.9-1,55.9-4.4,84.2-10.9,24-5.5,45.6-15.3,64.9-29.8,14.9-48.6,23.5-97.3,27-147.5,2.2-32.5,4-64,4.5-96.6,1.3-85.2,1.7-170-.5-255.2-1.1-39.4-5.5-77.5-14.6-115.4-3.2-6.6-11.1-11-16.9-15.3-96.1-71.4-156.5-67.7-269.6-35.3l-64.7,18.6c-29.7,8.5-58.9,14.4-89.2,20-14.7,2.7-30.9,1.4-44.4,7.9-27.5,13.1-53.7,25.8-83.3,33.3-15.2,3.9-29,9.7-44.8,12.6-47.5,9-97,6.8-143.8-5.5-43.2-11.3-83.4-27.4-122.5-48.5s-42.3-28.4-63.6-45.4c-50.7-8.6-105.9-5.9-154,15.4-41,18.2-69.6,66.3-85.6,106.2-13.8,34.2-16.6,39.7-16.7,78.7l-.4,220.2,2.5,60Z"/>
  <path class="st0" d="M1097.9,1193.1h1.2c-.3.3-.9.3-1.2,0Z"/>
  <path class="st1" d="M402.3,1662.8l-2.5-60,.4-220.2c0-39,2.9-44.5,16.7-78.7,16.1-39.9,44.6-88,85.6-106.2,48.1-21.3,103.3-24.1,154-15.4,21.3,17,40.5,32.9,63.6,45.4,39.1,21.1,79.3,37.2,122.5,48.5,46.8,12.2,96.3,14.4,143.8,5.5s29.6-8.8,44.8-12.6c29.6-7.5,55.8-20.2,83.3-33.3,13.5-6.5,29.7-5.1,44.4-7.9,30.3-5.6,59.5-11.5,89.2-20l64.7-18.6c113.1-32.5,173.5-36.1,269.6,35.3,5.7,4.3,13.6,8.6,16.9,15.3,9.1,37.9,13.5,76,14.6,115.4,2.3,85.2,1.8,170,.5,255.2-.5,32.6-2.3,64.1-4.5,96.6-3.5,50.1-12,98.9-27,147.5-19.2,14.5-40.9,24.3-64.9,29.8-28.2,6.5-55.2,9.8-84.2,10.9l-71.2,2.6h-707.9s-62-2.6-62-2.6c-50.3-2.1-103.7-6.7-148.9-32.8s-12.8-8.4-15.3-17.6c-7-25.9-13.3-51.6-18.2-78.4s-6.8-68.7-8.2-103.5Z"/>
</svg>